<svg width="28" height="28" viewBox="0 0 28 28" fill="none" xmlns="http://www.w3.org/2000/svg">
<path fill-rule="evenodd" clip-rule="evenodd" d="M10.7143 6.55461V5.78571H19.5V22.0714H10.7143V21.3025H9.21429V22.5C9.21429 23.0917 9.69399 23.5714 10.2857 23.5714H19.9286C20.5203 23.5714 21 23.0917 21 22.5V5.35713C21 4.7654 20.5203 4.28571 19.9286 4.28571H10.2857C9.69399 4.28571 9.21429 4.7654 9.21429 5.35713V6.55461H10.7143Z" fill="#EF6E6E"/>
<path d="M15.5 14.5786C15.859 14.5786 16.15 14.2875 16.15 13.9286C16.15 13.5696 15.859 13.2786 15.5 13.2786V14.5786ZM5.54038 13.4689C5.28654 13.7228 5.28654 14.1343 5.54038 14.3882L9.67696 18.5248C9.9308 18.7786 10.3424 18.7786 10.5962 18.5248C10.85 18.2709 10.85 17.8594 10.5962 17.6055L6.91924 13.9286L10.5962 10.2516C10.85 9.99776 10.85 9.58621 10.5962 9.33236C10.3424 9.07852 9.9308 9.07852 9.67696 9.33236L5.54038 13.4689ZM15.5 13.2786H6V14.5786H15.5V13.2786Z" fill="#EF6E6E"/>
</svg>
