<svg width="28" height="28" viewBox="0 0 28 28" fill="none" xmlns="http://www.w3.org/2000/svg">
<path fill-rule="evenodd" clip-rule="evenodd" d="M16.4 11C16.4 12.3807 15.2807 13.5 13.9 13.5C12.5193 13.5 11.4 12.3807 11.4 11C11.4 9.61929 12.5193 8.5 13.9 8.5C15.2807 8.5 16.4 9.61929 16.4 11ZM17.9 11C17.9 13.2091 16.1091 15 13.9 15C11.6909 15 9.89999 13.2091 9.89999 11C9.89999 8.79086 11.6909 7 13.9 7C16.1091 7 17.9 8.79086 17.9 11ZM16.9 17.5H10.9C9.31447 17.5 7.9752 18.5543 7.54492 20H6C6.46327 17.7178 8.48102 16 10.9 16H16.9C19.3189 16 21.3367 17.7178 21.8 20H20.255C19.8248 18.5543 18.4855 17.5 16.9 17.5Z" fill="white"/>
</svg>
